<?xml version="1.0" standalone="no"?>
<!DOCTYPE svg PUBLIC "-//W3C//DTD SVG 20010904//EN"
 "http://www.w3.org/TR/2001/REC-SVG-20010904/DTD/svg10.dtd">
<svg version="1.0" xmlns="http://www.w3.org/2000/svg"
 width="256.000000pt" height="256.000000pt" viewBox="0 0 256.000000 256.000000"
 preserveAspectRatio="xMidYMid meet">
<metadata>
Created by potrace 1.14, written by Peter Selinger 2001-2017
</metadata>
<g transform="translate(0.000000,256.000000) scale(0.100000,-0.100000)"
fill="#000000" stroke="none">
<path d="M1483 2130 c-12 -14 -16 -34 -14 -77 3 -65 13 -83 46 -83 33 0 49 26
53 83 5 82 -43 126 -85 77z"/>
<path d="M1101 2032 c-30 -25 -29 -45 3 -101 34 -58 50 -67 81 -47 34 23 35
49 4 99 -37 59 -60 73 -88 49z"/>
<path d="M1898 2041 c-28 -10 -78 -87 -78 -120 0 -25 35 -50 61 -44 19 5 68
63 53 63 -4 0 1 9 11 20 32 35 -3 97 -47 81z"/>
<path d="M1405 1818 c-142 -27 -290 -147 -355 -289 l-35 -75 -50 -2 c-113 -3
-253 -70 -342 -163 -71 -75 -124 -184 -136 -281 -4 -35 -8 -38 -49 -44 -132
-20 -237 -155 -226 -291 8 -105 61 -184 158 -234 l45 -24 762 -3 c756 -3 763
-2 812 18 91 40 142 151 111 244 -24 72 -101 136 -165 136 -18 0 -25 7 -30 33
-4 17 -14 44 -21 59 -14 27 -12 31 34 90 80 104 113 198 113 323 -1 330 -295
566 -626 503z"/>
<path d="M806 1741 c-34 -37 -18 -68 55 -105 43 -23 84 -16 92 15 9 32 -1 47
-48 75 -57 33 -80 36 -99 15z"/>
<path d="M2131 1727 c-40 -25 -51 -37 -51 -57 0 -68 69 -66 147 3 13 11 20 27
17 40 -9 49 -48 54 -113 14z"/>
<path d="M2189 1349 c-42 -42 -13 -80 64 -84 64 -3 97 13 97 49 0 35 -25 49
-87 51 -43 2 -60 -2 -74 -16z"/>
<path d="M2092 998 c-13 -13 -16 -47 -4 -63 4 -6 28 -23 54 -38 37 -21 52 -25
71 -18 53 20 36 76 -33 111 -45 23 -71 25 -88 8z"/>
</g>
</svg>
